<?xml version="1.0" encoding="utf-8"?>
<!-- Generator: Adobe Illustrator 16.0.0, SVG Export Plug-In . SVG Version: 6.00 Build 0)  -->
<!DOCTYPE svg PUBLIC "-//W3C//DTD SVG 1.1//EN" "http://www.w3.org/Graphics/SVG/1.1/DTD/svg11.dtd">
<svg version="1.1" id="Layer_1" xmlns="http://www.w3.org/2000/svg" xmlns:xlink="http://www.w3.org/1999/xlink" x="0px" y="0px"
	 width="724.9px" height="197.3px" viewBox="0 0 724.9 197.3" enable-background="new 0 0 724.9 197.3" xml:space="preserve">
<path fill="#2DAFE6" d="M432.085,191.079l6.463-16.475h-34.104c-9.582,0-17.055-2.379-22.41-7.141
	c-5.357-4.752-8.035-11.428-8.035-20.027V87.284h-20.466v60.109c0,6.971,1.073,13.271,3.215,18.91
	c2.139,5.635,5.383,10.449,9.724,14.449c4.343,3.998,9.729,7.074,16.153,9.225c6.428,2.15,13.93,3.225,22.496,3.225h25.939
	L432.085,191.079z"/>
<path fill="#005599" d="M330.339,149.774c-1.691-3.943-3.978-7.326-6.851-10.145c-2.876-2.816-6.256-5.023-10.147-6.611
	c-3.89-1.59-8.096-2.383-12.602-2.383h-21.243l-0.823,1.508l-6.656,17.092h27.705c3.723,0,6.768,1.252,9.134,3.746
	c2.37,2.498,3.552,5.422,3.552,8.787c0,1.73-0.336,3.363-1.01,4.889c-0.679,1.527-1.576,2.875-2.701,4.049
	c-1.126,1.172-2.474,2.111-4.051,2.83c-1.572,0.713-3.205,1.068-4.887,1.068h-24.293c-18.219,0-27.333-11.404-27.333-34.209
	c0-11.963,2.287-20.705,6.851-26.227c4.569-5.523,11.473-8.283,20.722-8.283h47.528V87.282h-42.285
	c-35.405,0-53.166,17.525-53.282,52.58v0.459c0,35.258,17.645,52.883,52.943,52.883h19.959c4.286,0,8.376-0.871,12.262-2.615
	c3.89-1.74,7.33-4.045,10.318-6.918c2.989-2.865,5.356-6.121,7.107-9.76c1.748-3.637,2.622-7.402,2.622-11.297
	C332.877,158,332.031,153.719,330.339,149.774"/>
<path fill="#2DAFE6" d="M679.123,139.86c4.549-2.459,7.844-5.689,9.893-9.688c2.047-3.994,3.07-7.889,3.07-11.684
	c0-4.402-0.658-8.504-1.961-12.299c-1.309-3.79-3.439-7.094-6.393-9.911c-2.957-2.821-6.787-5.023-11.488-6.611
	s-10.379-2.382-17.033-2.382h-58.184v18.598h61.398c1.805,0,3.494,0.336,5.074,1.002c1.582,0.666,2.963,1.564,4.146,2.689
	c1.182,1.125,2.143,2.434,2.873,3.918c0.734,1.488,1.102,3.053,1.102,4.688c0,3.488-1.244,6.436-3.723,8.844
	c-2.482,2.408-5.699,3.609-9.641,3.609h-61.23v5.018v13.586v25.367v15.812v2.785h58.184c6.77,0,12.469-0.893,17.117-2.689
	c4.641-1.791,8.447-4.15,11.404-7.07c2.953-2.922,5.084-6.273,6.393-10.072c1.303-3.787,1.961-7.633,1.961-11.527
	c0-4.301-1.023-8.432-3.07-12.375C686.966,145.522,683.671,142.319,679.123,139.86 M667.898,170.936
	c-2.482,2.445-5.699,3.668-9.641,3.668h-42.631v-25.367h42.799c1.805,0,3.494,0.332,5.074,0.998c1.582,0.662,2.963,1.549,4.146,2.67
	c1.182,1.121,2.143,2.422,2.873,3.896c0.734,1.479,1.102,3.029,1.102,4.658C671.621,165.334,670.376,168.495,667.898,170.936z"/>
<path fill="#005599" d="M158.002,87.484c-1.22-0.132-2.478-0.2-3.782-0.2c-5.415,0-10.095,1.125-14.042,3.38
	c-3.946,2.254-6.824,5.69-8.624,10.298l-36.199,92.239h21.651l28.167-72.312L158.002,87.484z"/>
<path fill="#005599" d="M176.883,100.965c-1.684-4.306-4.317-7.565-7.864-9.821l-8.583,22.485l30.996,79.574h21.648L176.883,100.965
	z"/>
<path fill="#2DAFE6" d="M520.705,87.482c-1.219-0.132-2.467-0.2-3.764-0.2c-5.414,0-10.096,1.13-14.041,3.384
	c-3.947,2.254-6.824,5.686-8.627,10.299l-36.197,92.238h21.648l26.586-68.246L520.705,87.482z"/>
<path fill="#2DAFE6" d="M539.607,100.965c-1.693-4.313-4.33-7.583-7.893-9.836l-8.572,22.465l31.012,79.609h21.648L539.607,100.965z
	"/>
<path fill="#005599" d="M112.434,59.558C97.97,29.384,61.099,29.384,61.099,29.384s7.378,9.689,13.072,20.602
	c3.416,6.544,6.36,12.845,6.36,19.688c0,15.091-13.287,18.511-17.888,19.246c-0.355,0.055-0.774,0.067-1.185,0.079
	c-6.632,1.101-14.972,0.132-24.636-3.24c-17.481-6.089-24.002-29.017-22.78-44.747l-2.977,2.982c-9.42,9.42-9.42,24.695,0,34.116
	l33.958,33.96c9.421,9.422,24.695,9.422,34.121,0l33.957-33.96c0.95-0.946,1.736-1.991,2.494-3.048
	C115.738,69.777,114.816,64.527,112.434,59.558"/>
<path fill="#0085CC" d="M61.171,29.478c-0.008-0.012-0.072-0.091-0.072-0.091S61.163,29.465,61.171,29.478"/>
<path fill="#0085CC" d="M36.822,85.76c9.665,3.372,18.005,4.337,24.636,3.24c0.196-0.008,0.375-0.028,0.562-0.04
	c-0.846,0.071-1.787,0.071-2.654-0.072c-4.759-0.798-17.7-4.326-17.7-19.213c0-6.848,2.954-13.145,6.368-19.692
	c2.642-5.511,6.233-11.166,10.211-16.635c1.711-2.454,2.853-3.962,2.853-3.962s0.112,0.003,0.144,0.003
	c5.762-7.462,12.003-14.405,17.263-19.879c-9.461-8.83-24.257-8.699-33.479,0.523l-30.979,30.98
	C12.821,56.743,19.341,79.667,36.822,85.76"/>
<path fill="#2DAFE6" d="M113.103,43.991l-31.99-31.986c0,0-2.407-2.306-2.61-2.493c-5.259,5.47-11.496,12.417-17.262,19.875
	c1.509,0.017,37.034,0.639,51.195,30.17c2.377,4.968,3.304,10.219,3.156,15.506C122.359,65.634,121.573,52.466,113.103,43.991"/>
<path fill="#2DAFE6" d="M60.758,89.057c0.219-0.032,0.47-0.021,0.686-0.057C61.228,89.036,60.977,89.025,60.758,89.057"/>
<path fill="#2DAFE6" d="M55.062,89.361c0.355,0.008,0.75,0.071,1.098,0.071C55.812,89.432,55.418,89.369,55.062,89.361"/>
<path fill="#005599" d="M706.041,174.067h5.398c2.57,0,4.637,1.496,4.637,4.293c0,1.629-0.861,3.316-2.697,3.967l3.387,5.402h-2.771
	l-3.205-5.115h-2.203v5.115h-2.545V174.067z M711.136,180.467c1.471,0,2.449-0.707,2.449-2.123c0-1.611-1.072-2.125-2.49-2.125
	h-2.51v4.248H711.136z"/>
<circle fill="none" stroke="#005599" stroke-width="0.5" stroke-miterlimit="10" cx="710.021" cy="181.387" r="11.104"/>
</svg>
