<?xml version="1.0" encoding="utf-8"?>
<!-- Generator: Adobe Illustrator 22.1.0, SVG Export Plug-In . SVG Version: 6.00 Build 0)  -->
<svg version="1.1" id="Capa_1" xmlns="http://www.w3.org/2000/svg" xmlns:xlink="http://www.w3.org/1999/xlink" x="0px" y="0px"
	 viewBox="0 0 724.9 197.3" style="enable-background:new 0 0 724.9 197.3;" xml:space="preserve">
<style type="text/css">
	.st0{fill:#69AEE3;}
	.st1{fill:#265596;}
	.st2{fill:#0084C9;}
	.st3{fill:none;stroke:#265596;stroke-width:0.5;stroke-miterlimit:10;}
</style>
<path class="st0" d="M432.3,192.4l6.5-16.5h-34.1c-9.6,0-17.1-2.4-22.4-7.1c-5.4-4.8-8-11.4-8-20V88.6h-20.5v60.1
	c0,7,1.1,13.3,3.2,18.9c2.1,5.6,5.4,10.5,9.7,14.4c4.3,4,9.7,7.1,16.2,9.2c6.4,2.2,13.9,3.2,22.5,3.2h25.9L432.3,192.4z"/>
<path class="st1" d="M330.5,151.1c-1.7-3.9-4-7.3-6.9-10.1c-2.9-2.8-6.3-5-10.1-6.6c-3.9-1.6-8.1-2.4-12.6-2.4h-21.2l-0.8,1.5
	l-6.7,17.1h27.7c3.7,0,6.8,1.3,9.1,3.7c2.4,2.5,3.6,5.4,3.6,8.8c0,1.7-0.3,3.4-1,4.9c-0.7,1.5-1.6,2.9-2.7,4
	c-1.1,1.2-2.5,2.1-4.1,2.8c-1.6,0.7-3.2,1.1-4.9,1.1h-24.3c-18.2,0-27.3-11.4-27.3-34.2c0-12,2.3-20.7,6.9-26.2
	c4.6-5.5,11.5-8.3,20.7-8.3h47.5V88.6h-42.3c-35.4,0-53.2,17.5-53.3,52.6v0.5c0,35.3,17.6,52.9,52.9,52.9h20c4.3,0,8.4-0.9,12.3-2.6
	c3.9-1.7,7.3-4,10.3-6.9c3-2.9,5.4-6.1,7.1-9.8c1.7-3.6,2.6-7.4,2.6-11.3C333.1,159.3,332.2,155,330.5,151.1"/>
<path class="st0" d="M679.3,141.2c4.5-2.5,7.8-5.7,9.9-9.7c2-4,3.1-7.9,3.1-11.7c0-4.4-0.7-8.5-2-12.3c-1.3-3.8-3.4-7.1-6.4-9.9
	c-3-2.8-6.8-5-11.5-6.6c-4.7-1.6-10.4-2.4-17-2.4h-58.2v18.6h61.4c1.8,0,3.5,0.3,5.1,1c1.6,0.7,3,1.6,4.1,2.7
	c1.2,1.1,2.1,2.4,2.9,3.9c0.7,1.5,1.1,3.1,1.1,4.7c0,3.5-1.2,6.4-3.7,8.8c-2.5,2.4-5.7,3.6-9.6,3.6h-61.2v5v13.6v25.4v15.8v2.8h58.2
	c6.8,0,12.5-0.9,17.1-2.7c4.6-1.8,8.4-4.1,11.4-7.1c3-2.9,5.1-6.3,6.4-10.1c1.3-3.8,2-7.6,2-11.5c0-4.3-1-8.4-3.1-12.4
	C687.1,146.8,683.9,143.6,679.3,141.2 M668.1,172.2c-2.5,2.4-5.7,3.7-9.6,3.7h-42.6v-25.4h42.8c1.8,0,3.5,0.3,5.1,1
	c1.6,0.7,3,1.5,4.1,2.7c1.2,1.1,2.1,2.4,2.9,3.9c0.7,1.5,1.1,3,1.1,4.7C671.8,166.6,670.6,169.8,668.1,172.2z"/>
<path class="st1" d="M158.2,88.8c-1.2-0.1-2.5-0.2-3.8-0.2c-5.4,0-10.1,1.1-14,3.4c-3.9,2.3-6.8,5.7-8.6,10.3l-36.2,92.2h21.7
	l28.2-72.3L158.2,88.8z"/>
<path class="st1" d="M177.1,102.3c-1.7-4.3-4.3-7.6-7.9-9.8l-8.6,22.5l31,79.6h21.6L177.1,102.3z"/>
<path class="st0" d="M520.9,88.8c-1.2-0.1-2.5-0.2-3.8-0.2c-5.4,0-10.1,1.1-14,3.4c-3.9,2.3-6.8,5.7-8.6,10.3l-36.2,92.2h21.6
	l26.6-68.2L520.9,88.8z"/>
<path class="st0" d="M539.8,102.3c-1.7-4.3-4.3-7.6-7.9-9.8l-8.6,22.5l31,79.6H576L539.8,102.3z"/>
<path class="st1" d="M112.6,60.9C98.1,30.7,61.3,30.7,61.3,30.7s7.4,9.7,13.1,20.6c3.4,6.5,6.4,12.8,6.4,19.7
	c0,15.1-13.3,18.5-17.9,19.2c-0.4,0.1-0.8,0.1-1.2,0.1c-6.6,1.1-15,0.1-24.6-3.2C19.5,81,13,58,14.2,42.3l-3,3
	c-9.4,9.4-9.4,24.7,0,34.1l34,34c9.4,9.4,24.7,9.4,34.1,0l34-34c1-0.9,1.7-2,2.5-3C115.9,71.1,115,65.8,112.6,60.9"/>
<path class="st2" d="M61.4,30.8C61.3,30.8,61.3,30.7,61.4,30.8C61.3,30.7,61.3,30.8,61.4,30.8"/>
<path class="st2" d="M37,87.1c9.7,3.4,18,4.3,24.6,3.2c0.2,0,0.4,0,0.6,0c-0.8,0.1-1.8,0.1-2.7-0.1c-4.8-0.8-17.7-4.3-17.7-19.2
	c0-6.8,3-13.1,6.4-19.7c2.6-5.5,6.2-11.2,10.2-16.6c1.7-2.5,2.9-4,2.9-4s0.1,0,0.1,0c5.8-7.5,12-14.4,17.3-19.9
	C69.2,2,54.4,2.1,45.2,11.3l-31,31C13,58,19.5,81,37,87.1"/>
<path class="st0" d="M113.3,45.3l-32-32c0,0-2.4-2.3-2.6-2.5c-5.3,5.5-11.5,12.4-17.3,19.9c1.5,0,37,0.6,51.2,30.2
	c2.4,5,3.3,10.2,3.2,15.5C122.5,66.9,121.8,53.8,113.3,45.3"/>
<path class="st0" d="M60.9,90.4c0.2,0,0.5,0,0.7-0.1C61.4,90.3,61.2,90.3,60.9,90.4"/>
<path class="st0" d="M55.2,90.7c0.4,0,0.8,0.1,1.1,0.1C56,90.7,55.6,90.7,55.2,90.7"/>
<path class="st1" d="M706.2,175.4h5.4c2.6,0,4.6,1.5,4.6,4.3c0,1.6-0.9,3.3-2.7,4l3.4,5.4h-2.8l-3.2-5.1h-2.2v5.1h-2.5V175.4z
	 M711.3,181.8c1.5,0,2.5-0.7,2.5-2.1c0-1.6-1.1-2.1-2.5-2.1h-2.5v4.2H711.3z"/>
<path class="st3" d="M721.3,182.7c0,6.1-5,11.1-11.1,11.1c-6.1,0-11.1-5-11.1-11.1c0-6.1,5-11.1,11.1-11.1
	C716.3,171.6,721.3,176.5,721.3,182.7z"/>
</svg>
